<mxfile host="app.diagrams.net" agent="Mozilla/5.0 (Macintosh; Intel Mac OS X 10_15_7) AppleWebKit/537.36 (KHTML, like Gecko) Chrome/128.0.0.0 Safari/537.36" version="24.7.12">
  <diagram name="Page-1" id="ciIc6U3kn4W-GQpszXeT">
    <mxGraphModel dx="2902" dy="2753" grid="1" gridSize="10" guides="1" tooltips="1" connect="1" arrows="1" fold="1" page="1" pageScale="1" pageWidth="1654" pageHeight="1169" math="0" shadow="0">
      <root>
        <mxCell id="0" />
        <mxCell id="1" parent="0" />
        <mxCell id="5VtOqmhmVT7Db4IWSAy4-88" value="" style="shape=folder;fontStyle=1;spacingTop=10;tabWidth=40;tabHeight=14;tabPosition=left;html=1;whiteSpace=wrap;" vertex="1" parent="1">
          <mxGeometry x="110" y="-50" width="1730" height="1360" as="geometry" />
        </mxCell>
        <mxCell id="5VtOqmhmVT7Db4IWSAy4-14" value="&lt;p&gt;&lt;font style=&quot;font-size: 24px;&quot;&gt;Workflow Engine&lt;/font&gt;&lt;/p&gt;" style="shape=folder;fontStyle=1;spacingTop=10;tabWidth=40;tabHeight=14;tabPosition=left;html=1;whiteSpace=wrap;fillColor=#f5f5f5;fontColor=#333333;strokeColor=#666666;" vertex="1" parent="1">
          <mxGeometry x="1280" y="789" width="450" height="300" as="geometry" />
        </mxCell>
        <mxCell id="5VtOqmhmVT7Db4IWSAy4-25" value="" style="group" vertex="1" connectable="0" parent="1">
          <mxGeometry x="760" y="857" width="440" height="390" as="geometry" />
        </mxCell>
        <mxCell id="5VtOqmhmVT7Db4IWSAy4-15" value="&lt;p&gt;&lt;br&gt;&lt;/p&gt;" style="shape=folder;fontStyle=1;spacingTop=10;tabWidth=40;tabHeight=14;tabPosition=left;html=1;whiteSpace=wrap;fillColor=#f5f5f5;fontColor=#333333;strokeColor=#666666;" vertex="1" parent="5VtOqmhmVT7Db4IWSAy4-25">
          <mxGeometry width="440" height="390" as="geometry" />
        </mxCell>
        <mxCell id="5VtOqmhmVT7Db4IWSAy4-16" value="&lt;span style=&quot;font-size: 24px;&quot;&gt;&lt;b&gt;Services (Azure)&lt;/b&gt;&lt;/span&gt;" style="text;html=1;align=center;verticalAlign=middle;whiteSpace=wrap;rounded=0;" vertex="1" parent="5VtOqmhmVT7Db4IWSAy4-25">
          <mxGeometry x="92" y="40" width="240" height="70" as="geometry" />
        </mxCell>
        <mxCell id="5VtOqmhmVT7Db4IWSAy4-17" value="&lt;font style=&quot;font-size: 14px;&quot;&gt;Microservices&lt;/font&gt;" style="shape=folder;fontStyle=1;spacingTop=10;tabWidth=40;tabHeight=14;tabPosition=left;html=1;whiteSpace=wrap;fillColor=#fff2cc;strokeColor=#d6b656;" vertex="1" parent="5VtOqmhmVT7Db4IWSAy4-25">
          <mxGeometry x="32" y="130" width="110" height="88" as="geometry" />
        </mxCell>
        <mxCell id="5VtOqmhmVT7Db4IWSAy4-18" value="&lt;font style=&quot;font-size: 14px;&quot;&gt;External API&#39;s&lt;/font&gt;" style="shape=folder;fontStyle=1;spacingTop=10;tabWidth=40;tabHeight=14;tabPosition=left;html=1;whiteSpace=wrap;fillColor=#fff2cc;strokeColor=#d6b656;" vertex="1" parent="5VtOqmhmVT7Db4IWSAy4-25">
          <mxGeometry x="159" y="130" width="116" height="88" as="geometry" />
        </mxCell>
        <mxCell id="5VtOqmhmVT7Db4IWSAy4-19" value="&lt;font style=&quot;font-size: 14px;&quot;&gt;PHP services&lt;/font&gt;" style="shape=folder;fontStyle=1;spacingTop=10;tabWidth=40;tabHeight=14;tabPosition=left;html=1;whiteSpace=wrap;fillColor=#fff2cc;strokeColor=#d6b656;" vertex="1" parent="5VtOqmhmVT7Db4IWSAy4-25">
          <mxGeometry x="295" y="130" width="110" height="88" as="geometry" />
        </mxCell>
        <mxCell id="5VtOqmhmVT7Db4IWSAy4-20" value="&lt;font style=&quot;font-size: 14px;&quot;&gt;Media server&lt;/font&gt;" style="shape=folder;fontStyle=1;spacingTop=10;tabWidth=40;tabHeight=14;tabPosition=left;html=1;whiteSpace=wrap;fillColor=#fff2cc;strokeColor=#d6b656;" vertex="1" parent="5VtOqmhmVT7Db4IWSAy4-25">
          <mxGeometry x="32" y="250" width="110" height="88" as="geometry" />
        </mxCell>
        <mxCell id="5VtOqmhmVT7Db4IWSAy4-47" value="&lt;font style=&quot;font-size: 14px;&quot;&gt;Solr&lt;/font&gt;" style="shape=folder;fontStyle=1;spacingTop=10;tabWidth=40;tabHeight=14;tabPosition=left;html=1;whiteSpace=wrap;fillColor=#fff2cc;strokeColor=#d6b656;" vertex="1" parent="5VtOqmhmVT7Db4IWSAy4-25">
          <mxGeometry x="162" y="250" width="110" height="88" as="geometry" />
        </mxCell>
        <mxCell id="5VtOqmhmVT7Db4IWSAy4-48" value="&lt;font style=&quot;font-size: 14px;&quot;&gt;OpenL&lt;/font&gt;" style="shape=folder;fontStyle=1;spacingTop=10;tabWidth=40;tabHeight=14;tabPosition=left;html=1;whiteSpace=wrap;fillColor=#fff2cc;strokeColor=#d6b656;" vertex="1" parent="5VtOqmhmVT7Db4IWSAy4-25">
          <mxGeometry x="295" y="255" width="110" height="88" as="geometry" />
        </mxCell>
        <mxCell id="5VtOqmhmVT7Db4IWSAy4-9" value="" style="shape=folder;fontStyle=1;spacingTop=10;tabWidth=40;tabHeight=14;tabPosition=left;html=1;whiteSpace=wrap;fillColor=#f5f5f5;fontColor=#333333;strokeColor=#666666;" vertex="1" parent="1">
          <mxGeometry x="200" y="40" width="480" height="300" as="geometry" />
        </mxCell>
        <mxCell id="5VtOqmhmVT7Db4IWSAy4-10" value="&lt;font style=&quot;font-size: 24px;&quot;&gt;&lt;b&gt;User Interface&lt;/b&gt;&lt;/font&gt;" style="text;html=1;align=center;verticalAlign=middle;whiteSpace=wrap;rounded=0;" vertex="1" parent="1">
          <mxGeometry x="324" y="60" width="240" height="70" as="geometry" />
        </mxCell>
        <mxCell id="5VtOqmhmVT7Db4IWSAy4-11" value="&lt;font style=&quot;font-size: 14px;&quot;&gt;Vehicle Landing pages (static)&lt;/font&gt;" style="shape=folder;fontStyle=1;spacingTop=10;tabWidth=40;tabHeight=14;tabPosition=left;html=1;whiteSpace=wrap;fillColor=#fff2cc;strokeColor=#d6b656;" vertex="1" parent="1">
          <mxGeometry x="220" y="146" width="133" height="88" as="geometry" />
        </mxCell>
        <mxCell id="5VtOqmhmVT7Db4IWSAy4-12" value="&lt;font style=&quot;font-size: 14px;&quot;&gt;Dynamic pages&lt;/font&gt;" style="shape=folder;fontStyle=1;spacingTop=10;tabWidth=40;tabHeight=14;tabPosition=left;html=1;whiteSpace=wrap;fillColor=#fff2cc;strokeColor=#d6b656;" vertex="1" parent="1">
          <mxGeometry x="379.5" y="150" width="133" height="88" as="geometry" />
        </mxCell>
        <mxCell id="5VtOqmhmVT7Db4IWSAy4-13" value="&lt;font style=&quot;font-size: 14px;&quot;&gt;Dashboard&lt;/font&gt;" style="shape=folder;fontStyle=1;spacingTop=10;tabWidth=40;tabHeight=14;tabPosition=left;html=1;whiteSpace=wrap;fillColor=#fff2cc;strokeColor=#d6b656;" vertex="1" parent="1">
          <mxGeometry x="540" y="150" width="120" height="88" as="geometry" />
        </mxCell>
        <mxCell id="5VtOqmhmVT7Db4IWSAy4-32" value="" style="shape=folder;fontStyle=1;spacingTop=10;tabWidth=40;tabHeight=14;tabPosition=left;html=1;whiteSpace=wrap;fillColor=#f5f5f5;fontColor=#333333;strokeColor=#666666;" vertex="1" parent="1">
          <mxGeometry x="200" y="384" width="480" height="386" as="geometry" />
        </mxCell>
        <mxCell id="5VtOqmhmVT7Db4IWSAy4-33" value="&lt;span style=&quot;font-size: 24px;&quot;&gt;&lt;b&gt;Akamai&lt;/b&gt;&lt;/span&gt;" style="text;html=1;align=center;verticalAlign=middle;whiteSpace=wrap;rounded=0;" vertex="1" parent="1">
          <mxGeometry x="324" y="420" width="240" height="70" as="geometry" />
        </mxCell>
        <mxCell id="5VtOqmhmVT7Db4IWSAy4-34" value="&lt;font style=&quot;font-size: 14px;&quot;&gt;Edge Caching&lt;/font&gt;" style="shape=folder;fontStyle=1;spacingTop=10;tabWidth=40;tabHeight=14;tabPosition=left;html=1;whiteSpace=wrap;fillColor=#fff2cc;strokeColor=#d6b656;" vertex="1" parent="1">
          <mxGeometry x="244" y="510" width="110" height="88" as="geometry" />
        </mxCell>
        <mxCell id="5VtOqmhmVT7Db4IWSAy4-35" value="&lt;font style=&quot;font-size: 14px;&quot;&gt;Akamai Image Manager&lt;/font&gt;" style="shape=folder;fontStyle=1;spacingTop=10;tabWidth=40;tabHeight=14;tabPosition=left;html=1;whiteSpace=wrap;fillColor=#fff2cc;strokeColor=#d6b656;" vertex="1" parent="1">
          <mxGeometry x="387" y="510" width="110" height="88" as="geometry" />
        </mxCell>
        <mxCell id="5VtOqmhmVT7Db4IWSAy4-36" value="&lt;font style=&quot;font-size: 14px;&quot;&gt;Netstorage&lt;/font&gt;" style="shape=folder;fontStyle=1;spacingTop=10;tabWidth=40;tabHeight=14;tabPosition=left;html=1;whiteSpace=wrap;fillColor=#fff2cc;strokeColor=#d6b656;" vertex="1" parent="1">
          <mxGeometry x="527" y="510" width="110" height="88" as="geometry" />
        </mxCell>
        <mxCell id="5VtOqmhmVT7Db4IWSAy4-38" value="&lt;font style=&quot;font-size: 14px;&quot;&gt;Split Proxy&lt;/font&gt;" style="shape=folder;fontStyle=1;spacingTop=10;tabWidth=40;tabHeight=14;tabPosition=left;html=1;whiteSpace=wrap;fillColor=#fff2cc;strokeColor=#d6b656;" vertex="1" parent="1">
          <mxGeometry x="244" y="632" width="110" height="88" as="geometry" />
        </mxCell>
        <mxCell id="5VtOqmhmVT7Db4IWSAy4-39" value="" style="shape=folder;fontStyle=1;spacingTop=10;tabWidth=40;tabHeight=14;tabPosition=left;html=1;whiteSpace=wrap;fillColor=#f5f5f5;fontColor=#333333;strokeColor=#666666;" vertex="1" parent="1">
          <mxGeometry x="200" y="819" width="480" height="270" as="geometry" />
        </mxCell>
        <mxCell id="5VtOqmhmVT7Db4IWSAy4-40" value="&lt;span style=&quot;font-size: 24px;&quot;&gt;&lt;b&gt;Server&lt;/b&gt;&lt;/span&gt;" style="text;html=1;align=center;verticalAlign=middle;whiteSpace=wrap;rounded=0;" vertex="1" parent="1">
          <mxGeometry x="326" y="820" width="240" height="70" as="geometry" />
        </mxCell>
        <mxCell id="5VtOqmhmVT7Db4IWSAy4-41" value="&lt;font style=&quot;font-size: 14px;&quot;&gt;Cache&lt;/font&gt;" style="shape=folder;fontStyle=1;spacingTop=10;tabWidth=40;tabHeight=14;tabPosition=left;html=1;whiteSpace=wrap;fillColor=#fff2cc;strokeColor=#d6b656;" vertex="1" parent="1">
          <mxGeometry x="243" y="910" width="110" height="88" as="geometry" />
        </mxCell>
        <mxCell id="5VtOqmhmVT7Db4IWSAy4-42" value="&lt;font style=&quot;font-size: 14px;&quot;&gt;Files, Redirects, Security&lt;/font&gt;" style="shape=folder;fontStyle=1;spacingTop=10;tabWidth=40;tabHeight=14;tabPosition=left;html=1;whiteSpace=wrap;fillColor=#fff2cc;strokeColor=#d6b656;" vertex="1" parent="1">
          <mxGeometry x="377" y="910" width="130" height="88" as="geometry" />
        </mxCell>
        <mxCell id="5VtOqmhmVT7Db4IWSAy4-43" value="&lt;font style=&quot;font-size: 14px;&quot;&gt;Add-ons&lt;/font&gt;" style="shape=folder;fontStyle=1;spacingTop=10;tabWidth=40;tabHeight=14;tabPosition=left;html=1;whiteSpace=wrap;fillColor=#fff2cc;strokeColor=#d6b656;" vertex="1" parent="1">
          <mxGeometry x="530" y="910" width="110" height="88" as="geometry" />
        </mxCell>
        <mxCell id="5VtOqmhmVT7Db4IWSAy4-45" style="edgeStyle=orthogonalEdgeStyle;rounded=0;orthogonalLoop=1;jettySize=auto;html=1;exitX=0.5;exitY=1;exitDx=0;exitDy=0;exitPerimeter=0;" edge="1" parent="1" source="5VtOqmhmVT7Db4IWSAy4-39" target="5VtOqmhmVT7Db4IWSAy4-39">
          <mxGeometry relative="1" as="geometry" />
        </mxCell>
        <mxCell id="5VtOqmhmVT7Db4IWSAy4-50" value="" style="group" vertex="1" connectable="0" parent="1">
          <mxGeometry x="760" y="40" width="440" height="390" as="geometry" />
        </mxCell>
        <mxCell id="5VtOqmhmVT7Db4IWSAy4-51" value="&lt;p&gt;&lt;br&gt;&lt;/p&gt;" style="shape=folder;fontStyle=1;spacingTop=10;tabWidth=40;tabHeight=14;tabPosition=left;html=1;whiteSpace=wrap;fillColor=#f5f5f5;fontColor=#333333;strokeColor=#666666;" vertex="1" parent="5VtOqmhmVT7Db4IWSAy4-50">
          <mxGeometry width="440" height="270" as="geometry" />
        </mxCell>
        <mxCell id="5VtOqmhmVT7Db4IWSAy4-52" value="&lt;span style=&quot;font-size: 24px;&quot;&gt;&lt;b&gt;AEM Publish&lt;/b&gt;&lt;/span&gt;" style="text;html=1;align=center;verticalAlign=middle;whiteSpace=wrap;rounded=0;" vertex="1" parent="5VtOqmhmVT7Db4IWSAy4-50">
          <mxGeometry x="92" y="40" width="240" height="70" as="geometry" />
        </mxCell>
        <mxCell id="5VtOqmhmVT7Db4IWSAy4-53" value="&lt;font style=&quot;font-size: 14px;&quot;&gt;Content &amp;amp; Asset Repo&lt;/font&gt;" style="shape=folder;fontStyle=1;spacingTop=10;tabWidth=40;tabHeight=14;tabPosition=left;html=1;whiteSpace=wrap;fillColor=#fff2cc;strokeColor=#d6b656;" vertex="1" parent="5VtOqmhmVT7Db4IWSAy4-50">
          <mxGeometry x="32" y="130" width="368" height="88" as="geometry" />
        </mxCell>
        <mxCell id="5VtOqmhmVT7Db4IWSAy4-63" value="" style="group" vertex="1" connectable="0" parent="1">
          <mxGeometry x="760" y="334" width="440" height="500" as="geometry" />
        </mxCell>
        <mxCell id="5VtOqmhmVT7Db4IWSAy4-64" value="&lt;p&gt;&lt;br&gt;&lt;/p&gt;" style="shape=folder;fontStyle=1;spacingTop=10;tabWidth=40;tabHeight=14;tabPosition=left;html=1;whiteSpace=wrap;fillColor=#f5f5f5;fontColor=#333333;strokeColor=#666666;" vertex="1" parent="5VtOqmhmVT7Db4IWSAy4-63">
          <mxGeometry width="440" height="500" as="geometry" />
        </mxCell>
        <mxCell id="5VtOqmhmVT7Db4IWSAy4-65" value="&lt;span style=&quot;font-size: 24px;&quot;&gt;&lt;b&gt;AEM Author&lt;/b&gt;&lt;/span&gt;" style="text;html=1;align=center;verticalAlign=middle;whiteSpace=wrap;rounded=0;" vertex="1" parent="5VtOqmhmVT7Db4IWSAy4-63">
          <mxGeometry x="92" y="40" width="240" height="70" as="geometry" />
        </mxCell>
        <mxCell id="5VtOqmhmVT7Db4IWSAy4-66" value="&lt;font style=&quot;font-size: 14px;&quot;&gt;Content &amp;amp; Asset Repo&lt;/font&gt;" style="shape=folder;fontStyle=1;spacingTop=10;tabWidth=40;tabHeight=14;tabPosition=left;html=1;whiteSpace=wrap;fillColor=#fff2cc;strokeColor=#d6b656;" vertex="1" parent="5VtOqmhmVT7Db4IWSAy4-63">
          <mxGeometry x="32" y="130" width="368" height="88" as="geometry" />
        </mxCell>
        <mxCell id="5VtOqmhmVT7Db4IWSAy4-68" value="&lt;font style=&quot;font-size: 14px;&quot;&gt;Publishing &amp;amp; Versioning Tools&lt;/font&gt;" style="shape=folder;fontStyle=1;spacingTop=10;tabWidth=40;tabHeight=14;tabPosition=left;html=1;whiteSpace=wrap;fillColor=#fff2cc;strokeColor=#d6b656;" vertex="1" parent="5VtOqmhmVT7Db4IWSAy4-63">
          <mxGeometry x="36" y="250" width="368" height="88" as="geometry" />
        </mxCell>
        <mxCell id="5VtOqmhmVT7Db4IWSAy4-69" value="&lt;font style=&quot;font-size: 14px;&quot;&gt;Health Monitoring&lt;/font&gt;" style="shape=folder;fontStyle=1;spacingTop=10;tabWidth=40;tabHeight=14;tabPosition=left;html=1;whiteSpace=wrap;fillColor=#fff2cc;strokeColor=#d6b656;" vertex="1" parent="5VtOqmhmVT7Db4IWSAy4-63">
          <mxGeometry x="36" y="370" width="368" height="88" as="geometry" />
        </mxCell>
        <mxCell id="5VtOqmhmVT7Db4IWSAy4-76" value="" style="group" vertex="1" connectable="0" parent="1">
          <mxGeometry x="1280" y="40" width="450" height="300" as="geometry" />
        </mxCell>
        <mxCell id="5VtOqmhmVT7Db4IWSAy4-21" value="&lt;p&gt;&lt;br&gt;&lt;/p&gt;" style="shape=folder;fontStyle=1;spacingTop=10;tabWidth=40;tabHeight=14;tabPosition=left;html=1;whiteSpace=wrap;fillColor=#f5f5f5;fontColor=#333333;strokeColor=#666666;" vertex="1" parent="5VtOqmhmVT7Db4IWSAy4-76">
          <mxGeometry width="450" height="300" as="geometry" />
        </mxCell>
        <mxCell id="5VtOqmhmVT7Db4IWSAy4-22" value="&lt;span style=&quot;font-size: 24px;&quot;&gt;&lt;b&gt;Security (Gigya)&lt;/b&gt;&lt;/span&gt;" style="text;html=1;align=center;verticalAlign=middle;whiteSpace=wrap;rounded=0;" vertex="1" parent="5VtOqmhmVT7Db4IWSAy4-76">
          <mxGeometry x="110" y="30" width="240" height="70" as="geometry" />
        </mxCell>
        <mxCell id="5VtOqmhmVT7Db4IWSAy4-23" value="&lt;font style=&quot;font-size: 14px;&quot;&gt;Authorization&lt;/font&gt;" style="shape=folder;fontStyle=1;spacingTop=10;tabWidth=40;tabHeight=14;tabPosition=left;html=1;whiteSpace=wrap;fillColor=#fff2cc;strokeColor=#d6b656;" vertex="1" parent="5VtOqmhmVT7Db4IWSAy4-76">
          <mxGeometry x="50" y="130" width="145" height="88" as="geometry" />
        </mxCell>
        <mxCell id="5VtOqmhmVT7Db4IWSAy4-24" value="&lt;font style=&quot;font-size: 14px;&quot;&gt;Authentication&lt;/font&gt;" style="shape=folder;fontStyle=1;spacingTop=10;tabWidth=40;tabHeight=14;tabPosition=left;html=1;whiteSpace=wrap;fillColor=#fff2cc;strokeColor=#d6b656;" vertex="1" parent="5VtOqmhmVT7Db4IWSAy4-76">
          <mxGeometry x="240" y="130" width="160" height="88" as="geometry" />
        </mxCell>
        <mxCell id="5VtOqmhmVT7Db4IWSAy4-77" value="" style="group" vertex="1" connectable="0" parent="1">
          <mxGeometry x="1280" y="380" width="450" height="350" as="geometry" />
        </mxCell>
        <mxCell id="5VtOqmhmVT7Db4IWSAy4-78" value="&lt;p&gt;&lt;br&gt;&lt;/p&gt;" style="shape=folder;fontStyle=1;spacingTop=10;tabWidth=40;tabHeight=14;tabPosition=left;html=1;whiteSpace=wrap;fillColor=#f5f5f5;fontColor=#333333;strokeColor=#666666;" vertex="1" parent="5VtOqmhmVT7Db4IWSAy4-77">
          <mxGeometry width="450" height="350" as="geometry" />
        </mxCell>
        <mxCell id="5VtOqmhmVT7Db4IWSAy4-79" value="&lt;span style=&quot;font-size: 24px;&quot;&gt;&lt;b&gt;Adobe Cloud&lt;/b&gt;&lt;/span&gt;" style="text;html=1;align=center;verticalAlign=middle;whiteSpace=wrap;rounded=0;" vertex="1" parent="5VtOqmhmVT7Db4IWSAy4-77">
          <mxGeometry x="110" y="30" width="240" height="70" as="geometry" />
        </mxCell>
        <mxCell id="5VtOqmhmVT7Db4IWSAy4-80" value="&lt;span style=&quot;font-size: 14px;&quot;&gt;Adobe Launch&lt;/span&gt;" style="shape=folder;fontStyle=1;spacingTop=10;tabWidth=40;tabHeight=14;tabPosition=left;html=1;whiteSpace=wrap;fillColor=#fff2cc;strokeColor=#d6b656;" vertex="1" parent="5VtOqmhmVT7Db4IWSAy4-77">
          <mxGeometry x="50" y="130" width="145" height="88" as="geometry" />
        </mxCell>
        <mxCell id="5VtOqmhmVT7Db4IWSAy4-81" value="&lt;span style=&quot;font-size: 14px;&quot;&gt;Adobe Analytics&lt;/span&gt;" style="shape=folder;fontStyle=1;spacingTop=10;tabWidth=40;tabHeight=14;tabPosition=left;html=1;whiteSpace=wrap;fillColor=#fff2cc;strokeColor=#d6b656;" vertex="1" parent="5VtOqmhmVT7Db4IWSAy4-77">
          <mxGeometry x="240" y="130" width="160" height="88" as="geometry" />
        </mxCell>
        <mxCell id="5VtOqmhmVT7Db4IWSAy4-87" value="&lt;span style=&quot;font-size: 14px;&quot;&gt;Adobe Target&lt;/span&gt;" style="shape=folder;fontStyle=1;spacingTop=10;tabWidth=40;tabHeight=14;tabPosition=left;html=1;whiteSpace=wrap;fillColor=#fff2cc;strokeColor=#d6b656;" vertex="1" parent="5VtOqmhmVT7Db4IWSAy4-77">
          <mxGeometry x="150" y="240" width="145" height="88" as="geometry" />
        </mxCell>
      </root>
    </mxGraphModel>
  </diagram>
</mxfile>
